<svg width="90" height="90" viewBox="0 0 90 90" fill="none" xmlns="http://www.w3.org/2000/svg">
<path fill-rule="evenodd" clip-rule="evenodd" d="M0 65.25H90V81.5603C90 86.2217 86.2189 90 81.5636 90H8.43637C3.77775 90 0 86.2273 0 81.5603V65.25ZM0 65.25H90V82.125H0V65.25Z" fill="#8FBCBB"/>
<path fill-rule="evenodd" clip-rule="evenodd" d="M46.6875 39.375V0H43.3125V82.125H46.6875V42.75H90V39.375H46.6875ZM0 8.44144C0 3.77944 3.78113 0 8.43637 0H81.5636C86.2228 0 90 3.78281 90 8.44144V82.125H0V8.44144Z" fill="#ECEFF4"/>
<rect x="46" y="42" width="44" height="41" fill="#ECEFF4"/>
<path d="M46 0H82C86.4183 0 90 3.58172 90 8V41H46V0Z" fill="#E5E9F0"/>
<path d="M0 7C0 3.13401 3.13401 0 7 0H45V82H0V7Z" fill="#D8DEE9"/>
</svg>
