<svg width="90" height="90" viewBox="0 0 90 90" fill="none" xmlns="http://www.w3.org/2000/svg">
<g clip-path="url(#clip0_11_49)">
<mask id="mask0_11_49" style="mask-type:alpha" maskUnits="userSpaceOnUse" x="0" y="0" width="90" height="90">
<path fill-rule="evenodd" clip-rule="evenodd" d="M63.8207 89.3854C65.2382 89.9376 66.8545 89.9022 68.2852 89.2137L86.8147 80.2977C88.7618 79.3608 90 77.3903 90 75.2284V14.7719C90 12.6101 88.7619 10.6396 86.8148 9.70269L68.2852 0.786349C66.4076 -0.117147 64.2101 0.104153 62.5621 1.30222C62.3268 1.47337 62.1025 1.66446 61.8921 1.87504L26.4196 34.2373L10.9685 22.5086C9.5301 21.4168 7.51827 21.5063 6.1824 22.7215L1.22673 27.2294C-0.407296 28.7157 -0.409169 31.2864 1.22268 32.7753L14.6224 45.0001L1.22268 57.2248C-0.409169 58.7136 -0.407296 61.2844 1.22673 62.7707L6.1824 67.2787C7.51827 68.4938 9.5301 68.5833 10.9685 67.4914L26.4196 55.7628L61.8921 88.125C62.4532 88.6865 63.1121 89.1093 63.8207 89.3854ZM67.5137 24.569L40.5982 45.0001L67.5137 65.4311V24.569Z" fill="white"/>
</mask>
<g mask="url(#mask0_11_49)">
<path d="M86.8153 9.71666L68.2712 0.78807C66.1247 -0.245413 63.5595 0.190532 61.875 1.87508L1.16874 57.225C-0.464108 58.7136 -0.462231 61.2844 1.17279 62.7708L6.13146 67.2787C7.46815 68.4939 9.48125 68.5833 10.9204 67.4915L84.0248 12.033C86.4774 10.1724 90 11.9217 90 15.0001V14.7848C90 12.6239 88.7622 10.6541 86.8153 9.71666Z" fill="#D8DEE9"/>
<g filter="url(#filter0_d_11_49)">
<path d="M86.8153 80.2834L68.2712 89.212C66.1247 90.2456 63.5595 89.8095 61.875 88.125L1.16874 32.7752C-0.464108 31.2864 -0.462231 28.7156 1.17279 27.2293L6.13146 22.7213C7.46815 21.5062 9.48125 21.4167 10.9204 22.5085L84.0248 77.967C86.4774 79.8276 90 78.0784 90 75V75.2153C90 77.3761 88.7622 79.3459 86.8153 80.2834Z" fill="#E5E9F0"/>
</g>
<g filter="url(#filter1_d_11_49)">
<path d="M68.272 89.2136C66.1249 90.2466 63.5597 89.8096 61.875 88.1249C63.9508 90.2007 67.5 88.7305 67.5 85.795V4.20487C67.5 1.26931 63.9508 -0.200838 61.875 1.87492C63.5597 0.190219 66.1249 -0.246342 68.272 0.786227L86.8128 9.70259C88.7611 10.6395 90 12.61 90 14.7718V75.2283C90 77.3901 88.7611 79.3607 86.8127 80.2976L68.272 89.2136Z" fill="#ECEFF4"/>
</g>
<g style="mix-blend-mode:overlay" opacity="0.25">
<path style="mix-blend-mode:overlay" opacity="0.25" fill-rule="evenodd" clip-rule="evenodd" d="M63.766 89.3854C65.1835 89.9376 66.7999 89.9022 68.2305 89.2138L86.76 80.2978C88.7071 79.3609 89.9453 77.3903 89.9453 75.2284V14.772C89.9453 12.6101 88.7072 10.6396 86.7601 9.70265L68.2305 0.78635C66.353 -0.117147 64.1554 0.104153 62.5074 1.30222C62.2721 1.47337 62.0478 1.66446 61.8374 1.87504L26.3649 34.2373L10.9138 22.5087C9.47549 21.4168 7.46358 21.5063 6.12771 22.7214L1.17204 27.2293C-0.461984 28.7158 -0.463857 31.2865 1.16799 32.7752L14.5677 45L1.16799 57.2249C-0.463857 58.7137 -0.461984 61.2844 1.17204 62.7707L6.12771 67.2786C7.46358 68.4938 9.47549 68.5833 10.9138 67.4915L26.3649 55.7628L61.8374 88.1251C62.3985 88.6865 63.0574 89.1094 63.766 89.3854ZM67.459 24.569L40.5435 45L67.459 65.4311V24.569Z" fill="url(#paint0_linear_11_49)"/>
</g>
</g>
</g>
<defs>
<filter id="filter0_d_11_49" x="-8.38803" y="13.4128" width="106.721" height="84.6878" filterUnits="userSpaceOnUse" color-interpolation-filters="sRGB">
<feFlood flood-opacity="0" result="BackgroundImageFix"/>
<feColorMatrix in="SourceAlpha" type="matrix" values="0 0 0 0 0 0 0 0 0 0 0 0 0 0 0 0 0 0 127 0" result="hardAlpha"/>
<feOffset/>
<feGaussianBlur stdDeviation="4.16667"/>
<feColorMatrix type="matrix" values="0 0 0 0 0 0 0 0 0 0 0 0 0 0 0 0 0 0 0.25 0"/>
<feBlend mode="overlay" in2="BackgroundImageFix" result="effect1_dropShadow_11_49"/>
<feBlend mode="normal" in="SourceGraphic" in2="effect1_dropShadow_11_49" result="shape"/>
</filter>
<filter id="filter1_d_11_49" x="53.5417" y="-8.10141" width="44.7917" height="106.203" filterUnits="userSpaceOnUse" color-interpolation-filters="sRGB">
<feFlood flood-opacity="0" result="BackgroundImageFix"/>
<feColorMatrix in="SourceAlpha" type="matrix" values="0 0 0 0 0 0 0 0 0 0 0 0 0 0 0 0 0 0 127 0" result="hardAlpha"/>
<feOffset/>
<feGaussianBlur stdDeviation="4.16667"/>
<feColorMatrix type="matrix" values="0 0 0 0 0 0 0 0 0 0 0 0 0 0 0 0 0 0 0.25 0"/>
<feBlend mode="overlay" in2="BackgroundImageFix" result="effect1_dropShadow_11_49"/>
<feBlend mode="normal" in="SourceGraphic" in2="effect1_dropShadow_11_49" result="shape"/>
</filter>
<linearGradient id="paint0_linear_11_49" x1="44.9453" y1="0.232055" x2="44.9453" y2="89.7681" gradientUnits="userSpaceOnUse">
<stop stop-color="white"/>
<stop offset="1" stop-color="white" stop-opacity="0"/>
</linearGradient>
<clipPath id="clip0_11_49">
<rect width="90" height="90" fill="white"/>
</clipPath>
</defs>
</svg>
